<svg width="15" height="15" viewBox="0 0 15 15" fill="none" xmlns="http://www.w3.org/2000/svg">
<path d="M0 7.5C0 3.35786 3.35786 0 7.5 0C11.6421 0 15 3.35786 15 7.5C15 11.6421 11.6421 15 7.5 15C3.35786 15 0 11.6421 0 7.5Z" fill="#1C4D73"/>
<path d="M5.55273 4.91521L5.17773 4.04468L5.76702 3.79021L6.14202 4.66075L6.51702 4.50003L6.59738 4.45986L6.69113 4.41968L6.31613 3.53575L6.90541 3.29468L7.29381 4.21878C7.80273 4.09825 8.21791 4.09825 8.55273 4.24557C8.88756 4.39289 9.12863 4.67414 9.30273 5.07593C9.42327 5.35718 9.46345 5.62503 9.42327 5.8795C9.38309 6.13396 9.26256 6.36164 9.04827 6.58932C9.43666 6.58932 9.75809 6.65628 9.99916 6.817C10.2536 6.97771 10.4545 7.23218 10.5884 7.55361C10.7893 8.02236 10.8161 8.45093 10.6554 8.82593C10.5081 9.20093 10.1733 9.54914 9.69113 9.85718L10.1733 10.9822L9.58398 11.2232L9.12863 10.1518L8.59291 10.3795L9.04827 11.4509L8.45898 11.7054L8.00363 10.634L6.67773 11.1965L6.26256 10.2188L6.86523 9.96432L5.25809 6.16075L4.65541 6.41521L4.24023 5.43753L5.56613 4.87503L5.55273 4.91521ZM7.10631 6.96432L7.53488 6.77682C7.80273 6.65628 7.97684 6.52236 8.0572 6.34825C8.12416 6.18753 8.11077 5.98664 8.01702 5.75896C7.95006 5.59825 7.8697 5.49111 7.77595 5.43753C7.6822 5.39736 7.57506 5.37057 7.42773 5.37057C7.28041 5.37057 7.10631 5.42414 6.89202 5.51789L6.5572 5.66521L7.10631 6.96432ZM8.16434 9.46878L8.71345 9.22771C8.98131 9.12057 9.15541 8.97325 9.23577 8.78575C9.31613 8.59825 9.30273 8.38396 9.20898 8.14289C9.08845 7.86164 8.92773 7.68753 8.71345 7.63396C8.51256 7.58039 8.21791 7.63396 7.85631 7.78128L7.50809 7.92861L8.16434 9.45539V9.46878Z" fill="white"/>
</svg>
