<svg width="15" height="15" viewBox="0 0 15 15" fill="none" xmlns="http://www.w3.org/2000/svg">
<path d="M0 7.5C0 3.35786 3.35786 0 7.5 0C11.6421 0 15 3.35786 15 7.5C15 11.6421 11.6421 15 7.5 15C3.35786 15 0 11.6421 0 7.5Z" fill="#1C4D73"/>
<path d="M4.97731 8.44677H4.43979V7.82373H4.90401C4.90401 7.726 4.90401 7.61606 4.90401 7.50611V7.26178H4.45201V6.62653H4.97731C5.25829 5.06283 6.34555 4 7.8726 4C9.5096 4 10.3892 5.01396 10.5113 6.40663H8.88656C8.80104 5.74695 8.4712 5.30716 7.84817 5.30716C7.18848 5.30716 6.79755 5.82024 6.65096 6.62653H8.15358V7.26178H6.58988C6.56544 7.35951 6.58988 7.726 6.58988 7.82373H8.15358V8.44677H6.66317C6.8342 9.25305 7.23735 9.68063 7.89703 9.68063C8.59337 9.68063 8.89878 9.14311 8.98429 8.4712H10.5602C10.4747 9.96161 9.55846 11 7.89703 11C6.36998 11 5.29494 9.99825 4.98953 8.44677H4.97731Z" fill="white"/>
</svg>
