<svg width="15" height="15" viewBox="0 0 15 15" fill="none" xmlns="http://www.w3.org/2000/svg">
<path d="M0 7.5C0 3.35786 3.35786 0 7.5 0C11.6421 0 15 3.35786 15 7.5C15 11.6421 11.6421 15 7.5 15C3.35786 15 0 11.6421 0 7.5Z" fill="#1C4D73"/>
<path d="M7.30158 10.2724C5.96773 10.1953 5.17402 9.52284 5.15198 8.37638H6.49686C6.55198 8.87244 6.81654 9.12598 7.30158 9.20315V7.89134C6.19922 7.60472 5.30631 7.35118 5.30631 6.13858C5.30631 5.09134 6.16615 4.55118 7.30158 4.49606V4H7.79764V4.50709C8.93307 4.58425 9.64961 5.15748 9.71575 6.2378H8.44804C8.39292 5.84095 8.17245 5.6315 7.80867 5.55433V6.73386C9.04331 7.02047 9.84804 7.4063 9.84804 8.51969C9.84804 9.63307 8.97717 10.2173 7.80867 10.2835V11H7.3126V10.2724H7.30158ZM7.30158 5.54331C6.87166 5.5874 6.64016 5.78583 6.64016 6.06142C6.64016 6.35906 6.83859 6.48032 7.30158 6.6126V5.54331ZM8.48111 8.62992C8.48111 8.29921 8.24961 8.16693 7.79764 8.03465V9.20315C8.17245 9.15906 8.48111 8.97165 8.48111 8.62992Z" fill="white"/>
</svg>
